<svg xmlns="http://www.w3.org/2000/svg" width="500" height="500" viewBox="0 0 500 500">
<g>
<path d="M 381.02 419.00 C380.21,420.28 374.83,420.52 343.79,420.66 C323.83,420.75 306.60,420.60 305.50,420.32 C303.44,419.80 292.37,415.04 281.05,409.80 C277.50,408.16 272.55,406.00 270.05,405.00 C267.55,404.01 262.58,401.85 259.00,400.20 C255.43,398.56 243.05,393.06 231.50,387.99 C219.95,382.92 207.61,377.41 204.08,375.75 L 197.66 372.74 L 191.58 375.84 C184.11,379.66 171.44,386.53 159.50,393.24 C154.55,396.03 148.48,399.42 146.00,400.77 C143.52,402.13 135.58,406.56 128.34,410.62 C115.03,418.09 112.00,419.18 112.00,416.54 C112.00,415.00 113.25,414.22 133.00,403.45 C139.88,399.70 152.80,392.55 161.72,387.57 C170.64,382.58 181.60,376.50 186.07,374.05 L 194.19 369.60 L 193.35 349.55 C192.88,338.52 192.50,325.00 192.50,319.50 C192.50,297.70 194.13,211.60 194.56,210.91 C194.80,210.51 198.72,208.17 203.25,205.71 C207.79,203.26 213.52,200.12 216.00,198.74 C218.48,197.36 231.07,190.40 244.00,183.26 C256.92,176.13 269.08,169.41 271.00,168.32 C304.81,149.25 307.00,148.32 307.00,153.03 C307.00,154.18 306.58,154.86 306.06,154.54 C305.93,154.46 305.90,154.33 305.83,154.25 C305.33,153.72 302.63,155.22 248.23,185.47 C243.12,188.31 237.56,191.40 231.50,194.77 C221.05,200.58 210.02,206.67 207.00,208.29 C203.98,209.92 200.38,212.33 199.00,213.64 L 196.50 216.04 L 195.90 269.77 C195.39,314.99 196.00,355.08 197.38,367.40 C197.76,370.82 199.57,372.32 206.44,374.90 C209.22,375.94 214.88,378.37 219.00,380.29 C234.80,387.64 258.52,398.00 259.56,398.00 C259.81,398.00 264.78,400.25 270.60,403.00 C276.41,405.75 281.36,408.00 281.60,408.00 C282.04,408.00 288.63,410.83 295.50,413.97 C297.70,414.98 300.76,416.30 302.30,416.90 C305.85,418.30 375.81,418.40 378.00,417.02 C379.29,416.20 379.50,410.98 379.49,380.00 C379.48,350.74 379.72,344.26 380.74,345.66 C382.29,347.77 382.55,416.58 381.02,419.00 ZM 323.55 303.16 C312.00,309.32 311.79,309.39 308.25,307.97 C305.58,306.90 305.21,304.98 307.80,305.66 C308.79,305.92 312.72,304.37 316.55,302.23 C320.37,300.08 328.23,295.81 334.00,292.73 C339.77,289.66 352.15,282.90 361.50,277.71 L 378.50 268.28 L 378.50 129.07 L 373.44 123.78 C370.65,120.88 365.06,114.68 361.02,110.00 C356.97,105.32 352.92,100.82 352.02,99.99 C351.12,99.16 345.25,92.64 338.99,85.49 C332.72,78.35 327.12,72.05 326.55,71.50 C323.87,68.95 319.69,64.00 320.20,64.00 C320.86,64.00 343.75,88.95 355.60,102.59 C359.95,107.58 367.23,115.81 371.79,120.87 C376.35,125.93 380.51,131.21 381.04,132.60 C381.62,134.13 382.00,161.57 382.00,202.01 L 382.00 268.89 L 379.75 271.37 C378.51,272.73 369.62,278.09 360.00,283.27 C350.38,288.45 340.70,293.73 338.50,295.00 C336.30,296.28 329.57,299.95 323.55,303.16 ZM 287.30 259.38 C283.40,261.35 282.07,261.37 279.56,259.47 C277.83,258.16 277.80,258.00 279.35,258.00 C281.46,258.00 289.22,254.16 290.23,252.62 C290.64,252.00 290.98,249.76 290.98,247.63 C291.00,244.30 291.21,243.93 292.50,245.00 C293.40,245.75 294.00,247.93 294.00,250.47 C294.00,255.01 292.82,256.59 287.30,259.38 Z" fill="rgb(141,113,87)"/>
<path d="M 381.02 419.00 C382.55,416.58 382.29,347.77 380.74,345.66 C380.05,344.71 379.72,347.37 379.58,358.21 C379.52,355.61 379.45,353.55 379.37,352.23 C378.84,343.49 378.66,342.88 376.16,341.52 C374.69,340.73 373.87,340.06 374.32,340.04 C375.63,339.98 379.32,342.09 381.75,344.30 L 384.00 346.35 L 384.00 383.05 C384.00,415.96 383.83,419.90 382.35,421.13 C381.03,422.23 373.28,422.55 343.60,422.76 L 306.50 423.02 L 295.00 417.91 C282.33,412.29 280.14,411.31 265.36,404.64 C259.79,402.13 253.49,399.43 251.36,398.65 C249.24,397.86 242.10,394.77 235.50,391.76 C210.25,380.27 199.98,376.00 197.57,376.00 C195.35,376.00 182.14,382.84 158.20,396.37 C153.96,398.77 147.35,402.44 143.50,404.53 C139.65,406.63 134.82,409.39 132.77,410.67 C130.72,411.95 128.85,413.00 128.62,413.00 C128.38,413.00 125.41,414.58 122.00,416.50 C114.93,420.50 112.07,420.84 109.50,418.00 C107.85,416.18 107.84,416.00 109.37,416.00 C110.29,416.00 112.72,414.94 114.77,413.64 C115.21,413.36 115.92,412.94 116.83,412.41 C112.43,414.99 112.00,415.63 112.00,416.54 C112.00,419.18 115.03,418.09 128.34,410.62 C135.58,406.56 143.52,402.13 146.00,400.77 C148.48,399.42 154.55,396.03 159.50,393.24 C171.44,386.53 184.11,379.66 191.58,375.84 L 197.66 372.74 L 204.08 375.75 C207.61,377.41 219.95,382.92 231.50,387.99 C243.05,393.06 255.43,398.56 259.00,400.20 C262.58,401.85 267.55,404.01 270.05,405.00 C272.55,406.00 277.50,408.16 281.05,409.80 C292.37,415.04 303.44,419.80 305.50,420.32 C306.60,420.60 323.83,420.75 343.79,420.66 C374.83,420.52 380.21,420.28 381.02,419.00 ZM 323.55 303.16 C329.57,299.95 336.30,296.28 338.50,295.00 C340.70,293.73 350.38,288.45 360.00,283.27 C369.62,278.09 378.51,272.73 379.75,271.37 L 382.00 268.89 L 382.00 202.01 C382.00,161.57 381.62,134.13 381.04,132.60 C380.51,131.21 376.35,125.93 371.79,120.87 C367.23,115.81 359.95,107.58 355.60,102.59 C343.75,88.95 320.86,64.00 320.20,64.00 C320.12,64.00 320.16,64.13 320.29,64.35 C318.04,61.69 317.54,61.73 314.76,62.75 C311.81,63.83 311.69,63.80 313.44,62.47 C317.71,59.24 320.42,61.12 334.72,77.26 C340.65,83.96 352.87,97.55 361.88,107.47 C370.89,117.38 379.55,127.26 381.13,129.40 L 384.00 133.30 L 384.00 201.96 C384.00,255.35 383.72,270.98 382.75,272.25 C382.06,273.14 379.02,275.17 376.00,276.75 C372.98,278.33 366.00,282.12 360.50,285.17 C350.48,290.73 345.96,293.19 325.50,304.27 C324.99,304.54 324.49,304.81 324.02,305.07 C316.16,309.32 312.87,311.10 313.01,312.55 C313.12,313.68 315.32,314.62 319.08,316.37 C323.16,318.28 326.05,319.86 325.50,319.90 C324.50,319.96 315.49,316.27 309.18,313.22 C306.47,311.91 305.28,311.82 302.68,312.78 C299.80,313.83 299.68,313.80 301.44,312.47 C302.51,311.66 304.20,311.00 305.19,311.00 C306.19,311.00 307.00,310.55 307.00,310.00 C307.00,309.45 306.55,309.00 306.00,309.00 C305.37,309.00 305.07,303.88 305.20,295.25 L 305.40 281.50 L 305.95 293.49 C306.36,302.34 306.70,305.00 307.71,305.64 C305.21,305.02 305.61,306.91 308.25,307.97 C311.79,309.39 312.00,309.32 323.55,303.16 ZM 197.66 368.81 C197.52,368.38 197.43,367.91 197.38,367.40 C196.00,355.08 195.39,314.99 195.90,269.77 L 196.50 216.04 L 199.00 213.64 C200.38,212.33 203.98,209.92 207.00,208.29 C210.02,206.67 221.05,200.58 231.50,194.77 C237.56,191.40 243.12,188.31 248.23,185.47 L 248.23 185.47 C302.63,155.22 305.33,153.72 305.83,154.25 C305.90,154.33 305.93,154.46 306.06,154.54 C306.28,154.67 306.48,154.63 306.64,154.45 C306.87,157.97 306.88,164.34 306.77,175.72 L 306.54 200.50 L 306.25 178.75 C306.07,164.98 305.59,157.00 304.95,157.00 C303.81,157.00 297.72,160.30 252.00,185.71 C234.12,195.65 215.49,205.97 210.59,208.64 C205.70,211.31 200.86,214.62 199.85,216.00 C198.12,218.36 198.01,221.97 197.95,281.00 C197.89,342.12 198.47,364.55 200.12,365.57 C200.57,365.85 202.35,365.35 204.08,364.46 C205.81,363.57 206.98,363.23 206.68,363.70 C206.39,364.18 204.01,365.64 201.40,366.94 ZM 287.30 259.38 C292.82,256.59 294.00,255.01 294.00,250.47 C294.00,247.93 293.40,245.75 292.50,245.00 C291.34,244.04 291.05,244.24 291.00,246.72 C290.93,243.83 290.48,240.96 289.75,240.66 C289.06,240.38 288.95,240.12 289.51,240.08 C290.07,240.04 291.75,241.14 293.26,242.54 C295.59,244.70 296.00,245.88 296.00,250.47 C296.00,256.59 294.83,258.26 288.53,261.12 C283.16,263.56 280.78,263.46 278.17,260.69 C276.54,258.95 276.00,257.14 276.02,253.44 C276.03,247.93 276.53,246.81 279.68,245.15 C283.31,243.24 283.73,243.87 280.25,245.99 C277.28,247.80 277.00,248.40 277.00,252.99 C277.00,257.37 277.26,258.00 279.04,258.00 C280.28,258.00 283.01,256.97 285.48,255.75 C283.07,256.96 280.44,258.00 279.35,258.00 C277.80,258.00 277.83,258.16 279.56,259.47 C282.07,261.37 283.40,261.35 287.30,259.38 ZM 325.73 70.70 C326.01,70.98 326.29,71.25 326.55,71.50 C327.12,72.05 332.72,78.35 338.99,85.49 C345.25,92.64 351.11,99.16 352.02,99.99 C351.11,99.16 345.29,92.70 339.07,85.62 C332.85,78.54 327.02,72.02 326.13,71.11 C326.02,71.00 325.88,70.86 325.73,70.70 ZM 305.93 150.69 C304.91,150.47 302.95,151.08 299.23,152.88 C303.11,150.94 305.06,150.19 305.56,150.39 C305.70,150.44 305.82,150.53 305.93,150.69 ZM 119.91 410.65 C123.26,408.75 127.69,406.30 132.00,403.96 C136.22,401.68 142.36,398.31 148.52,394.91 C142.62,398.17 136.86,401.34 133.00,403.45 C127.18,406.63 122.96,408.93 119.91,410.65 ZM 206.02 374.74 C203.21,373.67 201.29,372.78 199.98,371.85 C201.49,372.77 203.87,373.91 206.02,374.74 ZM 316.02 302.52 C316.21,302.41 316.40,302.31 316.59,302.20 C316.57,302.21 316.56,302.22 316.55,302.23 C316.37,302.32 316.20,302.42 316.02,302.52 Z" fill="rgb(185,186,184)"/>
<path d="M 325.73 70.70 C325.88,70.86 326.02,71.00 326.13,71.11 C327.02,72.02 332.85,78.54 339.07,85.62 C345.29,92.69 351.11,99.16 352.02,99.99 L 352.02 99.99 L 352.02 99.99 C352.92,100.82 356.97,105.32 361.02,110.00 C365.06,114.68 370.65,120.88 373.44,123.78 L 378.50 129.07 L 378.50 268.28 L 361.50 277.71 C352.15,282.90 339.77,289.66 334.00,292.73 C328.23,295.81 320.37,300.08 316.55,302.23 C316.56,302.22 316.57,302.21 316.59,302.20 C316.40,302.31 316.21,302.41 316.02,302.52 C312.37,304.51 308.74,305.90 307.80,305.66 C307.77,305.65 307.74,305.64 307.71,305.64 C306.70,305.00 306.36,302.34 305.95,293.49 L 305.76 289.35 C305.68,275.42 305.69,255.29 305.82,233.00 C306.07,189.09 306.03,167.81 305.60,160.29 C305.91,163.84 306.14,170.17 306.25,178.75 L 306.54 200.50 L 306.77 175.72 C306.88,164.34 306.87,157.97 306.64,154.45 C306.86,154.21 307.00,153.70 307.00,153.03 C307.00,151.75 306.84,150.89 305.93,150.69 C305.82,150.53 305.70,150.44 305.56,150.39 C305.06,150.19 303.11,150.94 299.23,152.88 C294.02,155.39 285.37,160.22 271.00,168.32 C269.08,169.41 256.92,176.13 244.00,183.26 C231.07,190.40 218.48,197.36 216.00,198.74 C213.52,200.12 207.79,203.26 203.25,205.71 C198.72,208.17 194.80,210.51 194.56,210.91 C194.13,211.60 192.50,297.70 192.50,319.50 C192.50,325.00 192.88,338.52 193.35,349.55 L 194.19 369.60 L 186.07 374.05 C181.60,376.50 170.64,382.58 161.72,387.57 C157.81,389.75 153.12,392.36 148.52,394.91 L 148.50 394.91 C142.35,398.31 136.22,401.68 132.00,403.96 C127.69,406.30 123.26,408.75 119.91,410.65 C118.71,411.32 117.69,411.90 116.83,412.41 L 116.83 412.41 C115.92,412.94 115.21,413.36 114.77,413.64 C112.72,414.94 110.29,416.00 109.37,416.00 C109.22,416.00 109.09,416.00 108.97,416.01 C108.13,410.30 108.03,390.45 108.01,316.14 C107.99,241.84 108.28,215.33 109.14,213.70 C109.78,212.49 115.33,203.62 121.48,194.00 C127.62,184.38 134.52,173.27 136.82,169.33 C142.20,160.08 144.92,156.95 149.65,154.53 C151.77,153.44 155.07,151.61 157.00,150.45 C158.93,149.29 162.98,146.98 166.00,145.33 C173.44,141.26 211.56,120.03 238.50,104.97 C250.60,98.20 263.42,91.10 267.00,89.19 C270.58,87.28 275.98,84.28 279.00,82.51 C282.02,80.74 289.90,76.33 296.50,72.70 C303.10,69.07 310.05,64.96 311.94,63.55 C312.27,63.31 312.61,63.07 312.95,62.85 C311.75,63.79 312.13,63.71 314.76,62.75 C317.54,61.73 318.04,61.69 320.29,64.35 C320.91,65.39 323.57,68.51 325.73,70.70 ZM 197.66 368.81 L 201.40 366.94 C204.01,365.64 206.39,364.18 206.68,363.70 C206.82,363.48 206.63,363.43 206.21,363.55 C215.42,359.10 233.22,350.06 234.46,349.07 C235.03,348.62 241.35,345.20 248.50,341.49 C255.65,337.77 262.52,334.11 263.76,333.34 C265.00,332.57 272.65,328.52 280.76,324.32 C288.87,320.13 297.28,315.42 299.45,313.85 C299.93,313.50 300.43,313.17 300.93,312.86 C299.74,313.80 300.11,313.72 302.68,312.78 C305.28,311.82 306.47,311.91 309.18,313.22 C315.49,316.27 324.50,319.96 325.50,319.90 C326.05,319.86 323.16,318.28 319.08,316.37 C315.32,314.62 313.12,313.68 313.01,312.55 C313.01,312.54 313.01,312.52 313.01,312.51 C313.67,313.52 316.54,315.08 323.41,318.39 C329.80,321.48 335.24,324.00 335.49,324.00 C335.74,324.00 338.77,325.29 342.22,326.86 C351.55,331.11 369.96,338.66 374.28,340.00 C374.32,340.01 374.36,340.02 374.40,340.04 C374.37,340.04 374.34,340.04 374.32,340.04 C373.87,340.06 374.69,340.73 376.16,341.52 C378.66,342.88 378.84,343.49 379.37,352.23 C379.45,353.55 379.52,355.61 379.58,358.21 C379.51,363.42 379.49,370.51 379.49,380.00 C379.50,410.98 379.29,416.20 378.00,417.02 C375.81,418.40 305.85,418.30 302.30,416.90 C300.76,416.30 297.70,414.98 295.50,413.97 C288.63,410.83 282.04,408.00 281.60,408.00 C281.36,408.00 276.41,405.75 270.60,403.00 C264.78,400.25 259.81,398.00 259.56,398.00 C258.52,398.00 234.80,387.64 219.00,380.29 C214.88,378.37 209.22,375.94 206.44,374.90 C206.30,374.84 206.16,374.79 206.02,374.74 L 206.02 374.74 C203.86,373.91 201.49,372.77 199.98,371.85 C198.71,370.95 198.02,370.00 197.66,368.81 ZM 289.75 240.66 C290.48,240.96 290.93,243.83 291.00,246.72 C290.99,246.99 290.99,247.30 290.98,247.63 C290.98,249.76 290.64,252.00 290.23,252.62 C289.75,253.36 287.70,254.63 285.48,255.75 C283.01,256.97 280.28,258.00 279.04,258.00 C277.26,258.00 277.00,257.37 277.00,252.99 C277.00,248.40 277.28,247.80 280.25,245.99 C281.88,244.99 282.66,244.33 282.65,244.10 C282.76,244.06 282.88,244.03 283.00,244.00 C285.15,243.42 287.62,242.23 288.50,241.36 C288.88,240.98 289.18,240.70 289.46,240.53 C289.54,240.57 289.64,240.62 289.75,240.66 ZM 290.27 240.32 C290.77,240.40 291.34,240.83 292.29,241.63 C295.00,243.92 295.72,244.79 295.92,247.78 C295.71,245.28 295.05,244.20 293.26,242.54 C292.20,241.56 291.05,240.72 290.27,240.32 ZM 314.47 310.58 C316.12,309.34 319.22,307.66 324.02,305.07 C324.49,304.81 324.99,304.54 325.50,304.27 C320.92,306.75 316.61,309.22 314.47,310.58 ZM 320.61 62.81 C318.68,61.40 317.26,60.96 315.95,61.21 C316.30,61.08 316.59,61.00 316.79,61.00 C317.75,61.00 318.95,61.54 320.61,62.81 ZM 384.00 346.18 L 384.00 346.35 L 381.75 344.30 C381.65,344.21 381.55,344.12 381.45,344.03 ZM 304.98 157.01 C303.88,157.13 300.22,159.00 280.61,169.84 C300.59,158.79 304.11,157.00 304.95,157.00 C304.96,157.00 304.97,157.00 304.98,157.01 ZM 109.63 418.14 C111.05,419.65 112.58,420.18 114.88,419.67 C112.55,420.20 111.02,419.68 109.67,418.19 C109.66,418.18 109.64,418.16 109.63,418.14 ZM 276.05 251.41 C276.03,252.01 276.02,252.68 276.02,253.44 C276.01,254.70 276.07,255.74 276.22,256.63 C276.06,255.70 276.00,254.60 276.00,253.26 C276.00,252.59 276.02,251.97 276.05,251.41 ZM 199.04 217.81 C198.59,219.62 198.33,223.11 198.18,231.34 C198.33,223.11 198.58,219.63 199.04,217.81 Z" fill="rgb(252,132,3)"/>
<path d="M 0.00 250.00 L 0.00 0.00 L 250.00 0.00 L 500.00 0.00 L 500.00 250.00 L 500.00 500.00 L 250.00 500.00 L 0.00 500.00 L 0.00 250.00 ZM 382.35 421.13 C383.83,419.90 384.00,415.95 384.00,382.97 L 384.00 346.18 L 381.03 343.67 C379.39,342.30 376.35,340.64 374.28,340.00 C369.96,338.66 351.55,331.11 342.22,326.86 C338.77,325.29 335.74,324.00 335.49,324.00 C335.24,324.00 329.80,321.48 323.41,318.39 C313.82,313.77 312.02,312.56 313.14,311.50 C313.89,310.80 319.45,307.54 325.50,304.27 C345.96,293.19 350.48,290.73 360.50,285.17 C366.00,282.12 372.98,278.33 376.00,276.75 C379.02,275.17 382.06,273.14 382.75,272.25 C383.72,270.98 384.00,255.35 384.00,201.96 L 384.00 133.30 L 381.13 129.40 C379.55,127.26 370.89,117.38 361.88,107.47 C352.87,97.55 340.65,83.96 334.72,77.26 C323.94,65.09 319.43,61.00 316.79,61.00 C316.02,61.00 313.84,62.15 311.94,63.55 C310.05,64.96 303.10,69.07 296.50,72.70 C289.90,76.33 282.02,80.74 279.00,82.51 C275.98,84.28 270.58,87.28 267.00,89.19 C263.42,91.10 250.60,98.20 238.50,104.97 C211.56,120.03 173.44,141.26 166.00,145.33 C162.98,146.98 158.93,149.29 157.00,150.45 C155.07,151.61 151.77,153.44 149.65,154.53 C144.92,156.95 142.20,160.08 136.82,169.33 C134.52,173.27 127.62,184.38 121.48,194.00 C115.33,203.62 109.78,212.49 109.14,213.70 C108.28,215.33 107.99,241.84 108.01,316.14 C108.04,407.52 108.18,416.54 109.67,418.19 C112.07,420.84 115.05,420.43 122.00,416.50 C125.41,414.58 128.38,413.00 128.62,413.00 C128.85,413.00 130.72,411.95 132.77,410.67 C134.82,409.39 139.65,406.63 143.50,404.53 C147.35,402.44 153.96,398.77 158.20,396.37 C182.14,382.84 195.35,376.00 197.57,376.00 C199.98,376.00 210.25,380.27 235.50,391.76 C242.10,394.77 249.24,397.86 251.36,398.65 C253.49,399.43 259.79,402.13 265.36,404.64 C280.14,411.31 282.33,412.29 295.00,417.91 L 306.50 423.02 L 343.60 422.76 C373.28,422.55 381.03,422.23 382.35,421.13 ZM 199.55 364.75 C198.34,360.84 197.89,337.67 197.95,281.50 C198.01,221.98 198.11,218.36 199.85,216.00 C200.86,214.62 205.70,211.31 210.59,208.64 C215.49,205.97 234.12,195.65 252.00,185.71 C298.47,159.89 303.81,157.00 305.10,157.00 C305.97,157.00 306.15,175.81 305.82,233.00 C305.58,274.80 305.74,309.00 306.19,309.00 C306.64,309.00 307.00,309.45 307.00,310.00 C307.00,310.55 306.19,311.00 305.20,311.00 C304.21,311.00 301.62,312.28 299.45,313.85 C297.28,315.42 288.87,320.13 280.76,324.32 C272.65,328.52 265.00,332.57 263.76,333.34 C262.52,334.11 255.65,337.77 248.50,341.49 C241.35,345.20 235.03,348.62 234.46,349.07 C232.81,350.38 201.75,366.00 200.80,366.00 C200.32,366.00 199.76,365.44 199.55,364.75 ZM 288.53 261.12 C294.78,258.29 296.00,256.58 295.98,250.68 C295.97,245.15 295.71,244.53 292.29,241.63 C290.28,239.93 289.95,239.91 288.50,241.36 C287.62,242.23 285.15,243.42 283.00,244.00 C277.34,245.52 276.00,247.30 276.00,253.26 C276.00,257.13 276.53,258.93 278.17,260.69 C280.78,263.46 283.16,263.56 288.53,261.12 Z" fill="rgb(254,254,254)"/>
</g>
</svg>